solid GiantLegoRocks
facet normal 0.0000 0.0000 -1920.0000
    outer loop
        vertex -16.0000 0.0000 -8.0000
        vertex -16.0000 9.6000 -8.0000
        vertex 16.0000 9.6000 -8.0000
    endloop
endfacet
facet normal 0.0000 0.0000 -1920.0000
    outer loop
        vertex 16.0000 9.6000 -8.0000
        vertex 16.0000 0.0000 -8.0000
        vertex -16.0000 0.0000 -8.0000
    endloop
endfacet
facet normal 0.0000 0.0000 1920.0000
    outer loop
        vertex 16.0000 0.0000 8.0000
        vertex 16.0000 9.6000 8.0000
        vertex -16.0000 9.6000 8.0000
    endloop
endfacet
facet normal 0.0000 0.0000 1920.0000
    outer loop
        vertex -16.0000 9.6000 8.0000
        vertex -16.0000 0.0000 8.0000
        vertex 16.0000 0.0000 8.0000
    endloop
endfacet
endsolid GiantLegoRocks
