solid GiantLegoRocks
facet normal 0.0000 0.0000 -32.0000
    outer loop
        vertex 4.8000 7.2000 2.4000
        vertex 4.8000 4.0000 2.4000
        vertex 3.2000 4.0000 2.4000
    endloop
endfacet
facet normal 0.0000 0.0000 -32.0000
    outer loop
        vertex 3.2000 4.0000 2.4000
        vertex 3.2000 7.2000 2.4000
        vertex 4.8000 7.2000 2.4000
    endloop
endfacet
facet normal 0.0000 0.0000 32.0000
    outer loop
        vertex 4.8000 7.2000 -2.4000
        vertex 3.2000 7.2000 -2.4000
        vertex 3.2000 4.0000 -2.4000
    endloop
endfacet
facet normal 0.0000 0.0000 32.0000
    outer loop
        vertex 3.2000 4.0000 -2.4000
        vertex 4.8000 4.0000 -2.4000
        vertex 4.8000 7.2000 -2.4000
    endloop
endfacet
facet normal 0.0000 0.0000 -32.0000
    outer loop
        vertex 12.8000 7.2000 2.4000
        vertex 12.8000 4.0000 2.4000
        vertex 11.2000 4.0000 2.4000
    endloop
endfacet
facet normal 0.0000 0.0000 -32.0000
    outer loop
        vertex 11.2000 4.0000 2.4000
        vertex 11.2000 7.2000 2.4000
        vertex 12.8000 7.2000 2.4000
    endloop
endfacet
facet normal 0.0000 0.0000 32.0000
    outer loop
        vertex 12.8000 7.2000 -2.4000
        vertex 11.2000 7.2000 -2.4000
        vertex 11.2000 4.0000 -2.4000
    endloop
endfacet
facet normal 0.0000 0.0000 32.0000
    outer loop
        vertex 11.2000 4.0000 -2.4000
        vertex 12.8000 4.0000 -2.4000
        vertex 12.8000 7.2000 -2.4000
    endloop
endfacet
facet normal 0.0000 0.0000 -32.0000
    outer loop
        vertex -3.2000 7.2000 2.4000
        vertex -3.2000 4.0000 2.4000
        vertex -4.8000 4.0000 2.4000
    endloop
endfacet
facet normal 0.0000 0.0000 -32.0000
    outer loop
        vertex -4.8000 4.0000 2.4000
        vertex -4.8000 7.2000 2.4000
        vertex -3.2000 7.2000 2.4000
    endloop
endfacet
facet normal 0.0000 0.0000 32.0000
    outer loop
        vertex -3.2000 7.2000 -2.4000
        vertex -4.8000 7.2000 -2.4000
        vertex -4.8000 4.0000 -2.4000
    endloop
endfacet
facet normal 0.0000 0.0000 32.0000
    outer loop
        vertex -4.8000 4.0000 -2.4000
        vertex -3.2000 4.0000 -2.4000
        vertex -3.2000 7.2000 -2.4000
    endloop
endfacet
facet normal 0.0000 0.0000 -32.0000
    outer loop
        vertex -11.2000 7.2000 2.4000
        vertex -11.2000 4.0000 2.4000
        vertex -12.8000 4.0000 2.4000
    endloop
endfacet
facet normal 0.0000 0.0000 -32.0000
    outer loop
        vertex -12.8000 4.0000 2.4000
        vertex -12.8000 7.2000 2.4000
        vertex -11.2000 7.2000 2.4000
    endloop
endfacet
facet normal 0.0000 0.0000 32.0000
    outer loop
        vertex -11.2000 7.2000 -2.4000
        vertex -12.8000 7.2000 -2.4000
        vertex -12.8000 4.0000 -2.4000
    endloop
endfacet
facet normal 0.0000 0.0000 32.0000
    outer loop
        vertex -12.8000 4.0000 -2.4000
        vertex -11.2000 4.0000 -2.4000
        vertex -11.2000 7.2000 -2.4000
    endloop
endfacet
facet normal 0.0000 0.0000 -160.0000
    outer loop
        vertex 22.4000 9.6000 2.4000
        vertex 22.4000 1.6000 2.4000
        vertex 19.2000 1.6000 2.4000
    endloop
endfacet
facet normal 0.0000 0.0000 -112.0000
    outer loop
        vertex 19.2000 1.6000 2.4000
        vertex 19.2000 7.2000 2.4000
        vertex 22.4000 9.6000 2.4000
    endloop
endfacet
facet normal 0.0000 0.0000 112.0000
    outer loop
        vertex 22.4000 9.6000 -2.4000
        vertex 19.2000 7.2000 -2.4000
        vertex 19.2000 1.6000 -2.4000
    endloop
endfacet
facet normal 0.0000 0.0000 160.0000
    outer loop
        vertex 19.2000 1.6000 -2.4000
        vertex 22.4000 1.6000 -2.4000
        vertex 22.4000 9.6000 -2.4000
    endloop
endfacet
facet normal 0.0000 0.0000 -112.0000
    outer loop
        vertex -19.2000 7.2000 2.4000
        vertex -19.2000 1.6000 2.4000
        vertex -22.4000 1.6000 2.4000
    endloop
endfacet
facet normal 0.0000 0.0000 -160.0000
    outer loop
        vertex -22.4000 1.6000 2.4000
        vertex -22.4000 9.6000 2.4000
        vertex -19.2000 7.2000 2.4000
    endloop
endfacet
facet normal 0.0000 0.0000 160.0000
    outer loop
        vertex -19.2000 7.2000 -2.4000
        vertex -22.4000 9.6000 -2.4000
        vertex -22.4000 1.6000 -2.4000
    endloop
endfacet
facet normal 0.0000 0.0000 112.0000
    outer loop
        vertex -22.4000 1.6000 -2.4000
        vertex -19.2000 1.6000 -2.4000
        vertex -19.2000 7.2000 -2.4000
    endloop
endfacet
facet normal 0.0000 0.0000 -576.0000
    outer loop
        vertex 22.4000 9.6000 2.4000
        vertex 19.2000 7.2000 2.4000
        vertex -19.2000 7.2000 2.4000
    endloop
endfacet
facet normal 0.0000 0.0000 -672.0000
    outer loop
        vertex -19.2000 7.2000 2.4000
        vertex -22.4000 9.6000 2.4000
        vertex 22.4000 9.6000 2.4000
    endloop
endfacet
facet normal 0.0000 0.0000 672.0000
    outer loop
        vertex 22.4000 9.6000 -2.4000
        vertex -22.4000 9.6000 -2.4000
        vertex -19.2000 7.2000 -2.4000
    endloop
endfacet
facet normal 0.0000 0.0000 576.0000
    outer loop
        vertex -19.2000 7.2000 -2.4000
        vertex 19.2000 7.2000 -2.4000
        vertex 22.4000 9.6000 -2.4000
    endloop
endfacet
facet normal 0.0000 448.0000 0.0000
    outer loop
        vertex 24.0000 9.6000 4.0000
        vertex 22.4000 9.6000 2.4000
        vertex -22.4000 9.6000 2.4000
    endloop
endfacet
facet normal 0.0000 480.0000 0.0000
    outer loop
        vertex -22.4000 9.6000 2.4000
        vertex -24.0000 9.6000 4.0000
        vertex 24.0000 9.6000 4.0000
    endloop
endfacet
facet normal 0.0000 480.0000 0.0000
    outer loop
        vertex 24.0000 9.6000 -4.0000
        vertex -24.0000 9.6000 -4.0000
        vertex -22.4000 9.6000 -2.4000
    endloop
endfacet
facet normal 0.0000 448.0000 0.0000
    outer loop
        vertex -22.4000 9.6000 -2.4000
        vertex 22.4000 9.6000 -2.4000
        vertex 24.0000 9.6000 -4.0000
    endloop
endfacet
facet normal 0.0000 80.0000 0.0000
    outer loop
        vertex 24.0000 9.6000 4.0000
        vertex 24.0000 9.6000 -4.0000
        vertex 22.4000 9.6000 -2.4000
    endloop
endfacet
facet normal 0.0000 48.0000 0.0000
    outer loop
        vertex 22.4000 9.6000 -2.4000
        vertex 22.4000 9.6000 2.4000
        vertex 24.0000 9.6000 4.0000
    endloop
endfacet
facet normal 0.0000 48.0000 0.0000
    outer loop
        vertex -24.0000 9.6000 4.0000
        vertex -22.4000 9.6000 2.4000
        vertex -22.4000 9.6000 -2.4000
    endloop
endfacet
facet normal 0.0000 80.0000 0.0000
    outer loop
        vertex -22.4000 9.6000 -2.4000
        vertex -24.0000 9.6000 -4.0000
        vertex -24.0000 9.6000 4.0000
    endloop
endfacet
facet normal 0.0000 0.0000 64.0000
    outer loop
        vertex 4.8000 7.2000 4.0000
        vertex 3.2000 7.2000 4.0000
        vertex 3.2000 0.8000 4.0000
    endloop
endfacet
facet normal 0.0000 0.0000 64.0000
    outer loop
        vertex 3.2000 0.8000 4.0000
        vertex 4.8000 0.8000 4.0000
        vertex 4.8000 7.2000 4.0000
    endloop
endfacet
facet normal 0.0000 0.0000 -64.0000
    outer loop
        vertex 4.8000 7.2000 -4.0000
        vertex 4.8000 0.8000 -4.0000
        vertex 3.2000 0.8000 -4.0000
    endloop
endfacet
facet normal 0.0000 0.0000 -64.0000
    outer loop
        vertex 3.2000 0.8000 -4.0000
        vertex 3.2000 7.2000 -4.0000
        vertex 4.8000 7.2000 -4.0000
    endloop
endfacet
facet normal 0.0000 0.0000 64.0000
    outer loop
        vertex 12.8000 7.2000 4.0000
        vertex 11.2000 7.2000 4.0000
        vertex 11.2000 0.8000 4.0000
    endloop
endfacet
facet normal 0.0000 0.0000 64.0000
    outer loop
        vertex 11.2000 0.8000 4.0000
        vertex 12.8000 0.8000 4.0000
        vertex 12.8000 7.2000 4.0000
    endloop
endfacet
facet normal 0.0000 0.0000 -64.0000
    outer loop
        vertex 12.8000 7.2000 -4.0000
        vertex 12.8000 0.8000 -4.0000
        vertex 11.2000 0.8000 -4.0000
    endloop
endfacet
facet normal 0.0000 0.0000 -64.0000
    outer loop
        vertex 11.2000 0.8000 -4.0000
        vertex 11.2000 7.2000 -4.0000
        vertex 12.8000 7.2000 -4.0000
    endloop
endfacet
facet normal 0.0000 0.0000 64.0000
    outer loop
        vertex -3.2000 7.2000 4.0000
        vertex -4.8000 7.2000 4.0000
        vertex -4.8000 0.8000 4.0000
    endloop
endfacet
facet normal 0.0000 0.0000 64.0000
    outer loop
        vertex -4.8000 0.8000 4.0000
        vertex -3.2000 0.8000 4.0000
        vertex -3.2000 7.2000 4.0000
    endloop
endfacet
facet normal 0.0000 0.0000 -64.0000
    outer loop
        vertex -3.2000 7.2000 -4.0000
        vertex -3.2000 0.8000 -4.0000
        vertex -4.8000 0.8000 -4.0000
    endloop
endfacet
facet normal 0.0000 0.0000 -64.0000
    outer loop
        vertex -4.8000 0.8000 -4.0000
        vertex -4.8000 7.2000 -4.0000
        vertex -3.2000 7.2000 -4.0000
    endloop
endfacet
facet normal 0.0000 0.0000 64.0000
    outer loop
        vertex -11.2000 7.2000 4.0000
        vertex -12.8000 7.2000 4.0000
        vertex -12.8000 0.8000 4.0000
    endloop
endfacet
facet normal 0.0000 0.0000 64.0000
    outer loop
        vertex -12.8000 0.8000 4.0000
        vertex -11.2000 0.8000 4.0000
        vertex -11.2000 7.2000 4.0000
    endloop
endfacet
facet normal 0.0000 0.0000 -64.0000
    outer loop
        vertex -11.2000 7.2000 -4.0000
        vertex -11.2000 0.8000 -4.0000
        vertex -12.8000 0.8000 -4.0000
    endloop
endfacet
facet normal 0.0000 0.0000 -64.0000
    outer loop
        vertex -12.8000 0.8000 -4.0000
        vertex -12.8000 7.2000 -4.0000
        vertex -11.2000 7.2000 -4.0000
    endloop
endfacet
facet normal 0.0000 0.0000 720.0000
    outer loop
        vertex 24.0000 9.6000 4.0000
        vertex -24.0000 9.6000 4.0000
        vertex -19.2000 7.2000 4.0000
    endloop
endfacet
facet normal 0.0000 0.0000 576.0000
    outer loop
        vertex -19.2000 7.2000 4.0000
        vertex 19.2000 7.2000 4.0000
        vertex 24.0000 9.6000 4.0000
    endloop
endfacet
facet normal 0.0000 0.0000 -576.0000
    outer loop
        vertex 24.0000 9.6000 -4.0000
        vertex 19.2000 7.2000 -4.0000
        vertex -19.2000 7.2000 -4.0000
    endloop
endfacet
facet normal 0.0000 0.0000 -720.0000
    outer loop
        vertex -19.2000 7.2000 -4.0000
        vertex -24.0000 9.6000 -4.0000
        vertex 24.0000 9.6000 -4.0000
    endloop
endfacet
facet normal 0.0000 0.0000 192.0000
    outer loop
        vertex 24.0000 0.0000 4.0000
        vertex 19.2000 0.8000 4.0000
        vertex -19.2000 0.8000 4.0000
    endloop
endfacet
facet normal 0.0000 0.0000 240.0000
    outer loop
        vertex -19.2000 0.8000 4.0000
        vertex -24.0000 0.0000 4.0000
        vertex 24.0000 0.0000 4.0000
    endloop
endfacet
facet normal 0.0000 0.0000 -240.0000
    outer loop
        vertex 24.0000 0.0000 -4.0000
        vertex -24.0000 0.0000 -4.0000
        vertex -19.2000 0.8000 -4.0000
    endloop
endfacet
facet normal 0.0000 0.0000 -192.0000
    outer loop
        vertex -19.2000 0.8000 -4.0000
        vertex 19.2000 0.8000 -4.0000
        vertex 24.0000 0.0000 -4.0000
    endloop
endfacet
facet normal 0.0000 0.0000 192.0000
    outer loop
        vertex 24.0000 9.6000 4.0000
        vertex 19.2000 7.2000 4.0000
        vertex 19.2000 0.8000 4.0000
    endloop
endfacet
facet normal 0.0000 0.0000 288.0000
    outer loop
        vertex 19.2000 0.8000 4.0000
        vertex 24.0000 0.0000 4.0000
        vertex 24.0000 9.6000 4.0000
    endloop
endfacet
facet normal 0.0000 0.0000 -288.0000
    outer loop
        vertex 24.0000 9.6000 -4.0000
        vertex 24.0000 0.0000 -4.0000
        vertex 19.2000 0.8000 -4.0000
    endloop
endfacet
facet normal 0.0000 0.0000 -192.0000
    outer loop
        vertex 19.2000 0.8000 -4.0000
        vertex 19.2000 7.2000 -4.0000
        vertex 24.0000 9.6000 -4.0000
    endloop
endfacet
facet normal 0.0000 0.0000 288.0000
    outer loop
        vertex -24.0000 9.6000 4.0000
        vertex -24.0000 0.0000 4.0000
        vertex -19.2000 0.8000 4.0000
    endloop
endfacet
facet normal 0.0000 0.0000 192.0000
    outer loop
        vertex -19.2000 0.8000 4.0000
        vertex -19.2000 7.2000 4.0000
        vertex -24.0000 9.6000 4.0000
    endloop
endfacet
facet normal 0.0000 0.0000 -192.0000
    outer loop
        vertex -24.0000 9.6000 -4.0000
        vertex -19.2000 7.2000 -4.0000
        vertex -19.2000 0.8000 -4.0000
    endloop
endfacet
facet normal 0.0000 0.0000 -288.0000
    outer loop
        vertex -19.2000 0.8000 -4.0000
        vertex -24.0000 0.0000 -4.0000
        vertex -24.0000 9.6000 -4.0000
    endloop
endfacet
endsolid GiantLegoRocks
